# xmcd
#
# Track frame offsets:
#	150
#	12211
#	23697
#	35423
#	45655
#	54188
#	65420
#	76965
#	88399
#	100474
#
# Disc length: 1490 seconds
#
# Revision: 1
# Processed by: cddbd v1.5.2PL0 Copyright (c) Steve Scherf et al.
# Submitted via: audiograbber 1.83.01
#
DISCID=7505d00a
DTITLE=Freddie Hart - Trip to Heaven
DYEAR=1973
DGENRE=Country
TTITLE0=Trip to Heaven
TTITLE1=I'm No Angel
TTITLE2=You Belong to Me
TTITLE3=The Twin of an Angel
TTITLE4=Look-A Here
TTITLE5=Love Did This to Me
TTITLE6=Skid Row Street
TTITLE7=Coldest Bed
TTITLE8=Living on Leftovers of You
TTITLE9=Ugly Duckling
EXTD=
EXTT0=
EXTT1=
EXTT2=
EXTT3=
EXTT4=
EXTT5=
EXTT6=
EXTT7=
EXTT8=
EXTT9=
PLAYORDER=
